<svg width="122" height="122" viewBox="0 0 122 122" fill="none" xmlns="http://www.w3.org/2000/svg">
<g filter="url(#filter0_dd)">
<rect x="25" y="21" width="72" height="72" rx="15" fill="#5CDB9E"/>
</g>
<path d="M61.6957 56.71C61.9491 58 62.0112 59.4943 61.9055 61.1317C61.097 73.6593 70.1642 93 82.7179 93C90.2522 93 96.36 86.8922 96.36 79.3579V36.0052C96.36 27.7834 89.7424 21.0911 81.5207 21.0421C70.5722 20.9768 58.8566 20.9669 55.8998 21.1644C50.3268 21.5366 59.4665 45.3577 61.6957 56.71Z" fill="#63E7A7" fill-opacity="0.5"/>
<path d="M38.2674 21.1644C30.1775 21.5366 43.4449 45.3577 46.6809 56.71C50.1262 68.7965 56.6823 93 69.2503 93H82C90.2843 93 97 86.2843 97 78V36.0546C97 27.8133 90.3551 21.1147 82.1139 21.0727C64.6453 20.9838 43.1682 20.9389 38.2674 21.1644Z" fill="#63E7A7" fill-opacity="0.4"/>
<g clip-path="url(#clip0)">
<path d="M62.5496 45.347C63.165 45.347 63.664 44.848 63.664 44.2326C63.664 43.6171 63.165 43.1182 62.5496 43.1182C61.9341 43.1182 61.4352 43.6171 61.4352 44.2326C61.4352 44.848 61.9341 45.347 62.5496 45.347Z" fill="white"/>
<path d="M72.579 44.2323C72.579 41.16 70.0795 38.6604 67.0071 38.6604H62.5496C57.0193 38.6604 52.52 43.1596 52.52 48.6899V71.1262C52.52 72.9696 51.0203 74.4693 49.1769 74.4693C48.5615 74.4693 48.0625 74.9683 48.0625 75.5837C48.0625 76.1992 48.5615 76.6981 49.1769 76.6981H69.2359C69.8513 76.6981 70.3503 76.1992 70.3503 75.5837C70.3503 73.763 69.471 72.1028 68.054 71.0744C68.6306 70.4507 69.1587 69.7861 69.6294 69.0839C73.4701 63.3537 73.5664 56.0394 69.8747 50.4496C68.9237 49.0097 68.3458 47.2635 68.1756 45.3467H71.4646C72.0801 45.3467 72.579 44.8477 72.579 44.2323ZM54.7488 48.6899C54.7488 44.3885 58.2482 40.8891 62.5496 40.8891H65.8927C65.8927 40.8891 65.8935 44.2439 65.8936 44.2497C65.9014 45.4197 66.035 46.5509 66.2889 47.6232C63.5548 47.9769 61.4351 50.3185 61.4351 53.1474V62.2111C61.4351 63.6639 60.5035 64.9034 59.2063 65.3633V62.2111C59.2063 59.5203 57.289 57.269 54.7488 56.7512V48.6899H54.7488ZM63.6907 74.4693C64.6505 73.9449 65.5527 73.3349 66.385 72.6505C67.1121 73.0479 67.6599 73.6988 67.9314 74.4693H63.6907ZM67.778 67.8429C65.1295 71.7943 60.4136 74.4693 54.8644 74.4693H53.6319C54.3328 73.5375 54.7489 72.3794 54.7489 71.1262V59.0596C56.046 59.5197 56.9777 60.7583 56.9777 62.2111V66.6687C56.9777 67.2841 57.4767 67.7831 58.0921 67.7831C61.1645 67.7831 63.664 65.2835 63.664 62.2111V53.1475C63.664 51.3043 65.1634 49.8047 67.0065 49.8043C67.2904 50.4641 67.6271 51.0907 68.0149 51.678C71.2103 56.5159 71.1173 62.8611 67.778 67.8429ZM68.1215 43.1179V41.0807C69.0699 41.4171 69.8231 42.1695 70.1593 43.1179H68.1215Z" fill="white"/>
</g>
<defs>
<filter id="filter0_dd" x="0" y="0" width="122" height="122" filterUnits="userSpaceOnUse" color-interpolation-filters="sRGB">
<feFlood flood-opacity="0" result="BackgroundImageFix"/>
<feColorMatrix in="SourceAlpha" type="matrix" values="0 0 0 0 0 0 0 0 0 0 0 0 0 0 0 0 0 0 127 0" result="hardAlpha"/>
<feOffset dy="4"/>
<feGaussianBlur stdDeviation="12.5"/>
<feComposite in2="hardAlpha" operator="out"/>
<feColorMatrix type="matrix" values="0 0 0 0 0 0 0 0 0 0 0 0 0 0 0 0 0 0 0.1 0"/>
<feBlend mode="normal" in2="BackgroundImageFix" result="effect1_dropShadow"/>
<feColorMatrix in="SourceAlpha" type="matrix" values="0 0 0 0 0 0 0 0 0 0 0 0 0 0 0 0 0 0 127 0" result="hardAlpha"/>
<feOffset dy="4"/>
<feGaussianBlur stdDeviation="7.5"/>
<feComposite in2="hardAlpha" operator="out"/>
<feColorMatrix type="matrix" values="0 0 0 0 0.0901961 0 0 0 0 0.72549 0 0 0 0 0.345098 0 0 0 0.05 0"/>
<feBlend mode="normal" in2="effect1_dropShadow" result="effect2_dropShadow"/>
<feBlend mode="normal" in="SourceGraphic" in2="effect2_dropShadow" result="shape"/>
</filter>
<clipPath id="clip0">
<rect width="38.0377" height="38.0377" fill="white" transform="translate(41.3019 38.6604)"/>
</clipPath>
</defs>
</svg>
